<svg width="329" height="226" viewBox="0 0 329 226" fill="none" xmlns="http://www.w3.org/2000/svg">
<path d="M188.142 124.093C188.775 123.045 189.561 122.05 190.501 121.111C193.538 118.074 197.216 116.555 201.537 116.555C205.857 116.555 209.535 118.083 212.572 121.138C215.627 124.174 217.154 127.853 217.154 132.173C217.154 135.427 216.295 138.31 214.578 140.822L214.605 140.849L214.253 141.256C213.964 141.672 213.647 142.079 213.304 142.476L204.058 152.996H217.154V159.938H187.654L201.537 145.242C207.321 138.933 210.213 134.577 210.213 132.173C210.213 129.769 209.363 127.726 207.664 126.045C205.983 124.346 203.941 123.497 201.537 123.497C199.132 123.497 197.09 124.337 195.409 126.018C194.415 127.012 193.71 128.133 193.294 129.38L188.142 124.093ZM239.713 161.673C234.435 161.673 229.934 159.477 226.21 155.084C222.486 150.674 220.625 145.35 220.625 139.114C220.625 132.878 222.486 127.564 226.21 123.171C229.934 118.761 234.435 116.555 239.713 116.555C244.991 116.555 249.492 118.761 253.215 123.171C256.939 127.564 258.801 132.878 258.801 139.114C258.801 145.35 256.939 150.674 253.215 155.084C249.492 159.477 244.991 161.673 239.713 161.673ZM239.713 154.732C243.075 154.732 245.94 153.213 248.308 150.177C250.676 147.122 251.86 143.434 251.86 139.114C251.86 134.794 250.676 131.116 248.308 128.079C245.94 125.024 243.075 123.497 239.713 123.497C236.351 123.497 233.486 125.024 231.118 128.079C228.75 131.116 227.566 134.794 227.566 139.114C227.566 143.434 228.75 147.122 231.118 150.177C233.486 153.213 236.351 154.732 239.713 154.732ZM262.76 124.093C263.392 123.045 264.178 122.05 265.118 121.111C268.155 118.074 271.834 116.555 276.154 116.555C280.474 116.555 284.152 118.083 287.189 121.138C290.244 124.174 291.771 127.853 291.771 132.173C291.771 135.427 290.913 138.31 289.195 140.822L289.223 140.849L288.87 141.256C288.581 141.672 288.265 142.079 287.921 142.476L278.675 152.996H291.771V159.938H262.271L276.154 145.242C281.938 138.933 284.83 134.577 284.83 132.173C284.83 129.769 283.981 127.726 282.281 126.045C280.6 124.346 278.558 123.497 276.154 123.497C273.75 123.497 271.707 124.337 270.026 126.018C269.032 127.012 268.327 128.133 267.911 129.38L262.76 124.093ZM296.977 139.114V118.291H324.742V125.232H303.918V132.173H313.245C315.993 132.173 318.379 132.751 320.403 133.908C324.272 136.113 326.206 139.891 326.206 145.242C326.206 145.513 326.197 145.784 326.179 146.055C326.179 150.375 324.651 154.063 321.597 157.118C318.56 160.154 314.881 161.673 310.561 161.673C306.241 161.673 302.563 160.145 299.526 157.091C297.248 154.831 295.82 152.201 295.242 149.2L302.047 147.763C302.355 149.444 303.15 150.918 304.433 152.183C306.115 153.882 308.157 154.732 310.561 154.732C312.965 154.732 315.008 153.891 316.689 152.21C318.388 150.511 319.238 148.459 319.238 146.055V145.73C319.238 141.319 316.933 139.114 312.324 139.114H296.977Z" fill="white"/>
<mask id="path-2-inside-1_1029_4186" fill="white">
<path fill-rule="evenodd" clip-rule="evenodd" d="M325.632 114.239C324.709 111.742 323.074 109.824 320.726 108.486C318.702 107.329 316.316 106.751 313.568 106.751L304.241 106.751V99.8094L325.064 99.8094V92.8682H297.3V113.692L312.646 113.692C313.972 113.692 315.108 113.874 316.052 114.239H325.632ZM290.236 114.239C291.474 112.01 292.094 109.514 292.094 106.751C292.094 102.43 290.566 98.7519 287.512 95.7152C284.475 92.6604 280.796 91.1329 276.476 91.1329C272.156 91.1329 268.478 92.6513 265.441 95.6881C264.501 96.628 263.715 97.6222 263.082 98.6706L268.234 103.958C268.649 102.711 269.354 101.59 270.349 100.596C272.03 98.9146 274.072 98.0741 276.476 98.0741C278.88 98.0741 280.923 98.9236 282.604 100.623C284.303 102.304 285.153 104.346 285.153 106.751C285.153 108.366 283.847 110.862 281.237 114.239H290.236ZM259.119 114.239C259.122 114.058 259.123 113.875 259.123 113.692C259.123 107.455 257.262 102.141 253.538 97.7487C249.814 93.3382 245.313 91.1329 240.035 91.1329C234.757 91.1329 230.256 93.3382 226.533 97.7487C222.809 102.141 220.947 107.455 220.947 113.692C220.947 113.875 220.949 114.058 220.952 114.239H227.895C227.89 114.058 227.888 113.875 227.888 113.692C227.888 109.372 229.072 105.693 231.44 102.656C233.808 99.6015 236.673 98.0741 240.035 98.0741C243.397 98.0741 246.262 99.6015 248.63 102.656C250.998 105.693 252.182 109.372 252.182 113.692C252.182 113.875 252.18 114.058 252.176 114.239H259.119ZM215.618 114.239C216.857 112.01 217.477 109.514 217.477 106.751C217.477 102.43 215.949 98.7519 212.894 95.7152C209.858 92.6604 206.179 91.1329 201.859 91.1329C197.539 91.1329 193.86 92.6513 190.824 95.6881C189.884 96.628 189.097 97.6222 188.465 98.6706L193.616 103.958C194.032 102.711 194.737 101.59 195.731 100.596C197.412 98.9146 199.455 98.0741 201.859 98.0741C204.263 98.0741 206.306 98.9236 207.987 100.623C209.686 102.304 210.535 104.346 210.535 106.751C210.535 108.366 209.23 110.862 206.619 114.239H215.618Z"/>
</mask>
<path d="M320.726 108.486L319.404 110.8L319.406 110.801L320.726 108.486ZM325.632 114.239V116.904H329.458L328.132 113.315L325.632 114.239ZM304.241 106.751H301.576V109.415H304.241V106.751ZM304.241 99.8094V97.1444H301.576V99.8094H304.241ZM325.064 99.8094V102.474H327.729V99.8094H325.064ZM325.064 92.8682H327.729V90.2033H325.064V92.8682ZM297.3 92.8682V90.2033H294.635V92.8682H297.3ZM297.3 113.692H294.635V116.357H297.3V113.692ZM316.052 114.239L315.092 116.725L315.555 116.904H316.052V114.239ZM290.236 114.239V116.904H291.803L292.565 115.534L290.236 114.239ZM287.512 95.7152L285.622 97.594L285.627 97.5996L285.633 97.6052L287.512 95.7152ZM265.441 95.6881L263.557 93.8036L263.557 93.8037L265.441 95.6881ZM263.082 98.6706L260.8 97.2937L259.737 99.0561L261.173 100.53L263.082 98.6706ZM268.234 103.958L266.325 105.818L269.378 108.951L270.762 104.801L268.234 103.958ZM270.349 100.596L268.464 98.7113L268.464 98.7113L270.349 100.596ZM282.604 100.623L280.71 102.497L280.72 102.507L280.73 102.517L282.604 100.623ZM281.237 114.239L279.128 112.609L275.808 116.904H281.237V114.239ZM259.119 114.239V116.904H261.737L261.783 114.286L259.119 114.239ZM253.538 97.7487L251.502 99.4679L251.505 99.472L253.538 97.7487ZM226.533 97.7487L228.565 99.472L228.569 99.4679L226.533 97.7487ZM220.952 114.239L218.287 114.286L218.334 116.904H220.952V114.239ZM227.895 114.239V116.904H230.623L230.559 114.176L227.895 114.239ZM231.44 102.656L233.542 104.295L233.547 104.289L231.44 102.656ZM248.63 102.656L246.524 104.289L246.529 104.295L248.63 102.656ZM252.176 114.239L249.512 114.176L249.447 116.904H252.176V114.239ZM215.618 114.239V116.904H217.186L217.948 115.534L215.618 114.239ZM212.894 95.7152L211.004 97.594L211.01 97.5996L211.016 97.6052L212.894 95.7152ZM190.824 95.6881L188.939 93.8037L188.939 93.8037L190.824 95.6881ZM188.465 98.6706L186.183 97.2937L185.12 99.0561L186.556 100.53L188.465 98.6706ZM193.616 103.958L191.708 105.818L194.761 108.951L196.145 104.801L193.616 103.958ZM195.731 100.596L197.616 102.48H197.616L195.731 100.596ZM207.987 100.623L206.092 102.497L206.102 102.507L206.112 102.517L207.987 100.623ZM206.619 114.239L204.511 112.609L201.191 116.904H206.619V114.239ZM319.406 110.801C321.218 111.834 322.43 113.264 323.132 115.163L328.132 113.315C326.988 110.22 324.929 107.815 322.046 106.171L319.406 110.801ZM313.568 109.415C315.935 109.415 317.849 109.911 319.404 110.8L322.048 106.172C319.555 104.747 316.696 104.086 313.568 104.086V109.415ZM304.241 109.415L313.568 109.415V104.086H304.241V109.415ZM301.576 99.8094V106.751H306.906V99.8094H301.576ZM325.064 97.1444H304.241V102.474L325.064 102.474V97.1444ZM322.399 92.8682V99.8094H327.729V92.8682H322.399ZM297.3 95.5332H325.064V90.2033H297.3V95.5332ZM299.965 113.692V92.8682H294.635V113.692H299.965ZM312.646 111.027L297.3 111.027V116.357L312.646 116.357V111.027ZM317.013 111.753C315.683 111.24 314.204 111.027 312.646 111.027V116.357C313.74 116.357 314.532 116.509 315.092 116.725L317.013 111.753ZM316.052 116.904H325.632V111.574H316.052V116.904ZM289.429 106.751C289.429 109.1 288.907 111.144 287.906 112.945L292.565 115.534C294.042 112.876 294.759 109.928 294.759 106.751H289.429ZM285.633 97.6052C288.183 100.14 289.429 103.138 289.429 106.751H294.759C294.759 101.723 292.95 97.3638 289.39 93.8252L285.633 97.6052ZM276.476 93.7979C280.089 93.7979 283.087 95.044 285.622 97.594L289.402 93.8364C285.863 90.2767 281.504 88.468 276.476 88.468V93.7979ZM267.325 97.5725C269.859 95.0388 272.858 93.7979 276.476 93.7979V88.468C271.454 88.468 267.096 90.2638 263.557 93.8036L267.325 97.5725ZM265.364 100.047C265.876 99.1987 266.525 98.3729 267.325 97.5725L263.557 93.8037C262.477 94.8832 261.553 96.0457 260.8 97.2937L265.364 100.047ZM270.142 102.098L264.991 96.8108L261.173 100.53L266.325 105.818L270.142 102.098ZM268.464 98.7113C267.198 99.9772 266.261 101.448 265.705 103.115L270.762 104.801C271.038 103.973 271.511 103.202 272.233 102.48L268.464 98.7113ZM276.476 95.4091C273.374 95.4091 270.651 96.5241 268.464 98.7113L272.233 102.48C273.408 101.305 274.77 100.739 276.476 100.739V95.4091ZM284.498 98.7485C282.314 96.5401 279.587 95.4091 276.476 95.4091V100.739C278.173 100.739 279.532 101.307 280.71 102.497L284.498 98.7485ZM287.818 106.751C287.818 103.639 286.687 100.913 284.478 98.7283L280.73 102.517C281.92 103.694 282.488 105.053 282.488 106.751H287.818ZM283.345 115.869C284.703 114.113 285.783 112.507 286.535 111.069C287.259 109.684 287.818 108.198 287.818 106.751H282.488C282.488 106.918 282.393 107.487 281.812 108.599C281.259 109.657 280.381 110.988 279.128 112.609L283.345 115.869ZM281.237 116.904H290.236V111.574H281.237V116.904ZM256.458 113.692C256.458 113.859 256.457 114.026 256.454 114.192L261.783 114.286C261.787 114.089 261.788 113.891 261.788 113.692H256.458ZM251.505 99.472C254.786 103.342 256.458 108.03 256.458 113.692H261.788C261.788 106.881 259.738 100.941 255.571 96.0254L251.505 99.472ZM240.035 93.7979C244.449 93.7979 248.231 95.5936 251.502 99.4679L255.574 96.0296C251.398 91.0828 246.178 88.468 240.035 88.468V93.7979ZM228.569 99.4679C231.84 95.5936 235.622 93.7979 240.035 93.7979V88.468C233.893 88.468 228.673 91.0828 224.496 96.0296L228.569 99.4679ZM223.612 113.692C223.612 108.03 225.285 103.342 228.565 99.472L224.5 96.0254C220.333 100.941 218.282 106.881 218.282 113.692H223.612ZM223.617 114.192C223.614 114.026 223.612 113.859 223.612 113.692H218.282C218.282 113.891 218.284 114.089 218.287 114.286L223.617 114.192ZM220.952 116.904H227.895V111.574H220.952V116.904ZM225.223 113.692C225.223 113.896 225.226 114.1 225.231 114.302L230.559 114.176C230.555 114.016 230.553 113.855 230.553 113.692H225.223ZM229.339 101.018C226.561 104.579 225.223 108.854 225.223 113.692H230.553C230.553 109.889 231.583 106.807 233.542 104.295L229.339 101.018ZM240.035 95.4091C235.719 95.4091 232.121 97.428 229.334 101.024L233.547 104.289C235.495 101.775 237.627 100.739 240.035 100.739V95.4091ZM250.737 101.024C247.95 97.428 244.352 95.4091 240.035 95.4091V100.739C242.443 100.739 244.575 101.775 246.524 104.289L250.737 101.024ZM254.847 113.692C254.847 108.854 253.509 104.579 250.732 101.018L246.529 104.295C248.487 106.807 249.517 109.889 249.517 113.692H254.847ZM254.84 114.302C254.845 114.1 254.847 113.896 254.847 113.692H249.517C249.517 113.855 249.515 114.016 249.512 114.176L254.84 114.302ZM252.176 116.904H259.119V111.574H252.176V116.904ZM214.812 106.751C214.812 109.1 214.29 111.144 213.289 112.945L217.948 115.534C219.425 112.876 220.142 109.928 220.142 106.751H214.812ZM211.016 97.6052C213.566 100.14 214.812 103.138 214.812 106.751H220.142C220.142 101.723 218.333 97.3638 214.773 93.8252L211.016 97.6052ZM201.859 93.7979C205.472 93.7979 208.47 95.044 211.004 97.594L214.784 93.8364C211.246 90.2767 206.886 88.468 201.859 88.468V93.7979ZM192.708 97.5725C195.242 95.0388 198.241 93.7979 201.859 93.7979V88.468C196.837 88.468 192.479 90.2638 188.939 93.8037L192.708 97.5725ZM190.747 100.047C191.259 99.1987 191.908 98.3729 192.708 97.5725L188.939 93.8037C187.86 94.8832 186.936 96.0457 186.183 97.2937L190.747 100.047ZM195.525 102.098L190.374 96.8108L186.556 100.53L191.708 105.818L195.525 102.098ZM193.847 98.7113C192.581 99.9772 191.644 101.448 191.088 103.115L196.145 104.801C196.421 103.973 196.893 103.202 197.616 102.48L193.847 98.7113ZM201.859 95.4091C198.757 95.4091 196.034 96.5241 193.847 98.7113L197.616 102.48C198.791 101.305 200.153 100.739 201.859 100.739V95.4091ZM209.881 98.7485C207.696 96.5401 204.97 95.4091 201.859 95.4091V100.739C203.556 100.739 204.915 101.307 206.092 102.497L209.881 98.7485ZM213.2 106.751C213.2 103.639 212.069 100.913 209.861 98.7283L206.112 102.517C207.302 103.694 207.871 105.053 207.871 106.751H213.2ZM208.728 115.869C210.086 114.113 211.166 112.507 211.918 111.069C212.642 109.684 213.2 108.198 213.2 106.751H207.871C207.871 106.918 207.776 107.487 207.195 108.599C206.642 109.657 205.764 110.988 204.511 112.609L208.728 115.869ZM206.619 116.904H215.618V111.574H206.619V116.904Z" fill="#FF0068" mask="url(#path-2-inside-1_1029_4186)"/>
<mask id="path-4-inside-2_1029_4186" fill="white">
<path fill-rule="evenodd" clip-rule="evenodd" d="M203.461 163.768C202.409 165.054 201.19 166.451 199.806 167.961L185.924 182.656H215.424V175.715H202.328L211.574 165.195C211.917 164.797 212.233 164.391 212.522 163.975L212.702 163.768H203.461ZM218.956 163.768C219.306 169.177 221.147 173.856 224.48 177.803C228.203 182.195 232.704 184.392 237.982 184.392C243.261 184.392 247.761 182.195 251.485 177.803C254.818 173.856 256.659 169.177 257.009 163.768H250.047C249.74 167.264 248.584 170.307 246.577 172.895C244.21 175.932 241.344 177.45 237.982 177.45C234.62 177.45 231.755 175.932 229.387 172.895C227.381 170.307 226.225 167.264 225.918 163.768H218.956ZM278.079 163.768C277.026 165.054 275.807 166.451 274.423 167.961L260.541 182.656H290.041V175.715H276.945L286.191 165.195C286.534 164.797 286.851 164.391 287.14 163.975L287.319 163.768H278.079ZM316.049 163.768C317.021 164.863 317.507 166.423 317.507 168.449V168.774C317.507 171.178 316.658 173.23 314.958 174.929C313.277 176.61 311.235 177.45 308.831 177.45C306.427 177.45 304.384 176.601 302.703 174.902C301.42 173.636 300.624 172.163 300.317 170.482L293.511 171.919C294.09 174.92 295.518 177.55 297.795 179.809C300.832 182.864 304.511 184.392 308.831 184.392C313.151 184.392 316.829 182.873 319.866 179.836C322.921 176.782 324.448 173.094 324.448 168.774C324.466 168.503 324.475 168.232 324.475 167.961C324.475 166.435 324.318 165.037 324.004 163.768H316.049Z"/>
</mask>
<path d="M199.806 167.961L201.743 169.791L201.757 169.776L201.77 169.762L199.806 167.961ZM203.461 163.768V161.103H202.199L201.399 162.079L203.461 163.768ZM185.924 182.656L183.987 180.826L179.74 185.321H185.924V182.656ZM215.424 182.656V185.321H218.089V182.656H215.424ZM215.424 175.715H218.089V173.05H215.424V175.715ZM202.328 175.715L200.326 173.956L196.438 178.38H202.328V175.715ZM211.574 165.195L213.575 166.954L213.583 166.946L213.59 166.937L211.574 165.195ZM212.522 163.975L210.509 162.23L210.416 162.337L210.335 162.453L212.522 163.975ZM212.702 163.768L214.716 165.513L218.538 161.103H212.702V163.768ZM224.48 177.803L222.443 179.522L222.447 179.526L224.48 177.803ZM218.956 163.768V161.103H216.113L216.296 163.94L218.956 163.768ZM251.485 177.803L253.518 179.526L253.521 179.522L251.485 177.803ZM257.009 163.768L259.668 163.94L259.852 161.103H257.009V163.768ZM250.047 163.768V161.103H247.605L247.392 163.535L250.047 163.768ZM246.577 172.895L248.679 174.534L248.684 174.528L246.577 172.895ZM229.387 172.895L227.281 174.528L227.286 174.534L229.387 172.895ZM225.918 163.768L228.573 163.535L228.36 161.103H225.918V163.768ZM274.423 167.961L276.361 169.791L276.374 169.776L276.388 169.762L274.423 167.961ZM278.079 163.768V161.103H276.816L276.017 162.079L278.079 163.768ZM260.541 182.656L258.604 180.826L254.358 185.321H260.541V182.656ZM290.041 182.656V185.321H292.706V182.656H290.041ZM290.041 175.715H292.706V173.05H290.041V175.715ZM276.945 175.715L274.943 173.956L271.055 178.38H276.945V175.715ZM286.191 165.195L288.192 166.954L288.2 166.946L288.208 166.937L286.191 165.195ZM287.14 163.975L285.126 162.23L285.033 162.337L284.952 162.453L287.14 163.975ZM287.319 163.768L289.333 165.513L293.156 161.103H287.319V163.768ZM316.049 163.768V161.103H310.121L314.056 165.537L316.049 163.768ZM314.958 174.929L313.074 173.044L313.074 173.044L314.958 174.929ZM302.703 174.902L304.598 173.027L304.586 173.016L304.574 173.004L302.703 174.902ZM300.317 170.482L302.939 170.003L302.446 167.309L299.766 167.875L300.317 170.482ZM293.511 171.919L292.961 169.312L290.399 169.853L290.895 172.424L293.511 171.919ZM297.795 179.809L299.685 177.931L299.679 177.924L299.672 177.917L297.795 179.809ZM319.866 179.836L321.751 181.721V181.721L319.866 179.836ZM324.448 168.774L321.789 168.597L321.783 168.685V168.774H324.448ZM324.004 163.768L326.591 163.127L326.089 161.103H324.004V163.768ZM201.77 169.762C203.181 168.224 204.433 166.788 205.523 165.456L201.399 162.079C200.384 163.319 199.2 164.679 197.842 166.16L201.77 169.762ZM187.861 184.486L201.743 169.791L197.869 166.131L183.987 180.826L187.861 184.486ZM215.424 179.991H185.924V185.321H215.424V179.991ZM212.759 175.715V182.656H218.089V175.715H212.759ZM202.328 178.38H215.424V173.05H202.328V178.38ZM209.572 163.436L200.326 173.956L204.329 177.474L213.575 166.954L209.572 163.436ZM210.335 162.453C210.101 162.79 209.842 163.123 209.557 163.453L213.59 166.937C213.992 166.472 214.366 165.992 214.71 165.497L210.335 162.453ZM210.688 162.022L210.509 162.23L214.536 165.72L214.716 165.513L210.688 162.022ZM212.702 161.103H203.461V166.433H212.702V161.103ZM226.516 176.084C223.57 172.595 221.93 168.466 221.615 163.596L216.296 163.94C216.681 169.888 218.724 175.117 222.443 179.522L226.516 176.084ZM237.982 181.727C233.564 181.727 229.782 179.936 226.512 176.08L222.447 179.526C226.625 184.454 231.844 187.057 237.982 187.057V181.727ZM249.452 176.08C246.183 179.936 242.4 181.727 237.982 181.727V187.057C244.121 187.057 249.34 184.454 253.518 179.526L249.452 176.08ZM254.349 163.596C254.034 168.466 252.394 172.595 249.449 176.084L253.521 179.522C257.241 175.117 259.283 169.888 259.668 163.94L254.349 163.596ZM257.009 161.103H250.047V166.433H257.009V161.103ZM248.684 174.528C251.026 171.506 252.354 167.968 252.701 164L247.392 163.535C247.127 166.56 246.141 169.108 244.471 171.263L248.684 174.528ZM237.982 180.115C242.292 180.115 245.889 178.112 248.679 174.534L244.476 171.257C242.53 173.752 240.397 174.786 237.982 174.786V180.115ZM227.286 174.534C230.076 178.112 233.673 180.115 237.982 180.115V174.786C235.568 174.786 233.435 173.752 231.489 171.257L227.286 174.534ZM223.263 164C223.611 167.968 224.938 171.506 227.281 174.528L231.494 171.263C229.823 169.108 228.838 166.56 228.573 163.535L223.263 164ZM225.918 161.103H218.956V166.433H225.918V161.103ZM276.388 169.762C277.798 168.224 279.05 166.788 280.141 165.456L276.017 162.079C275.002 163.319 273.817 164.679 272.459 166.16L276.388 169.762ZM262.478 184.486L276.361 169.791L272.486 166.131L258.604 180.826L262.478 184.486ZM290.041 179.991H260.541V185.321H290.041V179.991ZM287.376 175.715V182.656H292.706V175.715H287.376ZM276.945 178.38H290.041V173.05H276.945V178.38ZM284.189 163.436L274.943 173.956L278.947 177.474L288.192 166.954L284.189 163.436ZM284.952 162.453C284.718 162.79 284.459 163.123 284.174 163.453L288.208 166.937C288.61 166.472 288.983 165.992 289.327 165.497L284.952 162.453ZM285.305 162.022L285.126 162.23L289.154 165.72L289.333 165.513L285.305 162.022ZM287.319 161.103H278.079V166.433H287.319V161.103ZM320.172 168.449C320.172 166.021 319.589 163.741 318.042 161.999L314.056 165.537C314.454 165.985 314.842 166.825 314.842 168.449H320.172ZM320.172 168.774V168.449H314.842V168.774H320.172ZM316.843 176.813C319.042 174.614 320.172 171.885 320.172 168.774H314.842C314.842 170.472 314.273 171.845 313.074 173.044L316.843 176.813ZM308.831 180.115C311.933 180.115 314.656 179 316.843 176.813L313.074 173.044C311.899 174.219 310.537 174.786 308.831 174.786V180.115ZM300.809 176.776C302.993 178.984 305.72 180.115 308.831 180.115V174.786C307.134 174.786 305.775 174.217 304.598 173.027L300.809 176.776ZM297.696 170.961C298.107 173.212 299.181 175.172 300.832 176.8L304.574 173.004C303.658 172.101 303.142 171.115 302.939 170.003L297.696 170.961ZM294.062 174.527L300.868 173.09L299.766 167.875L292.961 169.312L294.062 174.527ZM299.672 177.917C297.755 176.016 296.6 173.862 296.128 171.415L290.895 172.424C291.58 175.978 293.281 179.084 295.919 181.701L299.672 177.917ZM308.831 181.727C305.218 181.727 302.22 180.481 299.685 177.931L295.905 181.688C299.444 185.248 303.803 187.057 308.831 187.057V181.727ZM317.982 177.952C315.448 180.486 312.449 181.727 308.831 181.727V187.057C313.853 187.057 318.211 185.261 321.751 181.721L317.982 177.952ZM321.783 168.774C321.783 172.387 320.537 175.397 317.982 177.952L321.751 181.721C325.305 178.166 327.113 173.801 327.113 168.774H321.783ZM321.81 167.961C321.81 168.173 321.803 168.385 321.789 168.597L327.107 168.951C327.129 168.621 327.14 168.291 327.14 167.961H321.81ZM321.417 164.408C321.672 165.437 321.81 166.616 321.81 167.961H327.14C327.14 166.254 326.965 164.638 326.591 163.127L321.417 164.408ZM324.004 161.103H316.049V166.433H324.004V161.103Z" fill="#FF0068" mask="url(#path-4-inside-2_1029_4186)"/>
<path fill-rule="evenodd" clip-rule="evenodd" d="M102.057 94.0257L103.659 95.2239L100.056 100.043C103.659 95.2239 103.659 95.2238 103.659 95.2239L104.951 96.1906C105.774 96.8076 106.955 97.693 108.386 98.7675C111.247 100.916 115.109 103.823 119.11 106.851C126.968 112.8 135.759 119.518 138.17 121.647L130.203 130.668C128.231 128.926 119.957 122.587 111.846 116.447C107.861 113.43 104.013 110.534 101.159 108.391C99.9075 107.451 98.8478 106.657 98.0527 106.061L52.3479 106.061L52.3479 94.0257L102.057 94.0257Z" fill="white"/>
<path fill-rule="evenodd" clip-rule="evenodd" d="M133.891 135.611C136.016 135.206 137.994 133.954 139.281 131.974C141.751 128.174 140.74 123.136 137.024 120.72C133.307 118.305 128.292 119.426 125.823 123.226C124.753 124.871 124.336 126.749 124.509 128.546L133.891 135.611ZM124.832 130.163C125.362 131.886 126.466 133.43 128.08 134.48C129.369 135.317 130.814 135.73 132.255 135.752L124.832 130.163Z" fill="white"/>
<path fill-rule="evenodd" clip-rule="evenodd" d="M162.487 39.9161L243.303 39.9161L243.303 51.9511L168.465 51.9511L132.562 99.3138L122.971 92.0433L162.487 39.9161Z" fill="white"/>
<path fill-rule="evenodd" clip-rule="evenodd" d="M135.295 49.9194C128.191 47.3347 120.522 45.9248 112.525 45.9248C75.7458 45.9248 45.9307 75.7399 45.9307 112.519C45.9307 149.298 75.7458 179.113 112.525 179.113C129.245 179.113 144.526 172.951 156.221 162.773L149.917 158.026C139.954 166.191 127.212 171.09 113.326 171.09C81.4215 171.09 55.5578 145.226 55.5578 113.322C55.5578 81.4174 81.4215 55.5537 113.326 55.5537C118.888 55.5537 124.266 56.3396 129.356 57.8066L135.295 49.9194Z" fill="white"/>
<path d="M90.8599 24.2607L94.0692 0.999944L106.104 0.999944H126.163L129.372 24.2607L90.8599 24.2607Z" fill="white" stroke="white" stroke-width="0.365801"/>
<path d="M94.0658 224.844L90.8564 201.583H129.369L126.159 224.844H114.124H94.0658Z" fill="white" stroke="white" stroke-width="0.365801"/>
<path d="M24.2607 132.583L0.999944 129.374V117.339V97.2806L24.2607 94.0713V132.583Z" fill="white" stroke="white" stroke-width="0.365801"/>
<path d="M35.0988 63.9344L20.9203 45.2172L29.4304 36.7071L43.6138 22.5236L62.3311 36.7021L35.0988 63.9344Z" fill="white" stroke="white" stroke-width="0.365801"/>
<path d="M63.9344 190.302L45.2172 204.48L36.7071 195.97L22.5236 181.787L36.7021 163.069L63.9344 190.302Z" fill="white" stroke="white" stroke-width="0.365801"/>
<path fill-rule="evenodd" clip-rule="evenodd" d="M151.247 28.7477C139.472 23.2961 126.353 20.2539 112.525 20.2539C61.566 20.2539 20.2559 61.564 20.2559 112.523C20.2559 163.481 61.566 204.791 112.525 204.791C137.214 204.791 159.639 195.094 176.197 179.301L163.167 169.489C149.702 181.469 131.962 188.747 112.521 188.747C70.425 188.747 36.2992 154.621 36.2992 112.525C36.2992 70.4283 70.425 36.3026 112.521 36.3026C122.711 36.3026 132.434 38.3022 141.319 41.9305L151.247 28.7477Z" fill="white"/>
<path d="M127.823 127.756L127.802 127.788L127.796 127.784L127.795 127.755L127.795 127.755L127.782 127.775L127.775 127.77L127.796 127.739L127.802 127.743L127.803 127.772L127.803 127.772L127.816 127.752L127.823 127.756ZM127.817 127.799C127.815 127.798 127.813 127.796 127.812 127.794C127.811 127.791 127.811 127.789 127.811 127.787C127.811 127.784 127.812 127.782 127.814 127.779C127.816 127.777 127.817 127.775 127.82 127.774C127.822 127.773 127.824 127.772 127.827 127.772C127.829 127.772 127.831 127.773 127.834 127.775C127.836 127.776 127.838 127.778 127.839 127.78C127.84 127.783 127.84 127.785 127.84 127.787C127.84 127.79 127.839 127.792 127.837 127.795C127.836 127.797 127.834 127.799 127.832 127.8C127.829 127.801 127.827 127.802 127.825 127.802C127.822 127.802 127.82 127.801 127.817 127.799ZM127.821 127.794C127.822 127.795 127.823 127.795 127.824 127.795C127.825 127.795 127.827 127.794 127.828 127.794C127.829 127.793 127.83 127.792 127.831 127.79C127.832 127.789 127.832 127.788 127.833 127.786C127.833 127.785 127.833 127.784 127.833 127.783C127.832 127.781 127.832 127.781 127.83 127.78C127.829 127.779 127.828 127.779 127.827 127.779C127.826 127.779 127.825 127.779 127.824 127.78C127.823 127.781 127.822 127.782 127.821 127.784C127.82 127.785 127.819 127.786 127.819 127.788C127.818 127.789 127.818 127.79 127.819 127.791C127.819 127.792 127.82 127.793 127.821 127.794ZM127.862 127.794L127.859 127.799L127.845 127.79L127.848 127.785L127.862 127.794ZM127.855 127.781L127.861 127.785L127.847 127.808C127.846 127.808 127.846 127.809 127.846 127.809C127.846 127.81 127.846 127.81 127.846 127.81C127.847 127.811 127.847 127.811 127.847 127.811C127.848 127.812 127.848 127.812 127.848 127.812C127.849 127.812 127.849 127.812 127.849 127.812L127.847 127.818C127.847 127.818 127.846 127.817 127.845 127.817C127.845 127.817 127.844 127.817 127.843 127.816C127.841 127.815 127.84 127.814 127.839 127.813C127.838 127.811 127.838 127.81 127.838 127.809C127.838 127.807 127.839 127.806 127.84 127.804L127.855 127.781ZM127.871 127.835C127.869 127.833 127.867 127.832 127.866 127.829C127.865 127.827 127.864 127.825 127.865 127.822C127.865 127.82 127.866 127.817 127.868 127.815C127.869 127.813 127.871 127.811 127.873 127.809C127.875 127.808 127.878 127.808 127.88 127.808C127.883 127.808 127.885 127.809 127.887 127.81C127.889 127.811 127.89 127.813 127.891 127.814C127.892 127.815 127.893 127.817 127.893 127.819C127.893 127.82 127.893 127.822 127.893 127.824C127.893 127.826 127.892 127.828 127.89 127.83L127.889 127.832L127.869 127.818L127.872 127.814L127.886 127.823C127.886 127.822 127.887 127.822 127.887 127.821C127.887 127.82 127.887 127.819 127.886 127.818C127.886 127.817 127.885 127.816 127.884 127.815C127.883 127.815 127.882 127.814 127.881 127.814C127.88 127.814 127.879 127.814 127.878 127.815C127.877 127.815 127.876 127.816 127.876 127.817L127.873 127.821C127.872 127.822 127.872 127.823 127.872 127.824C127.871 127.826 127.872 127.827 127.872 127.828C127.873 127.829 127.873 127.829 127.875 127.83C127.875 127.831 127.876 127.831 127.877 127.831C127.878 127.831 127.878 127.831 127.879 127.831C127.88 127.831 127.88 127.831 127.881 127.83L127.887 127.835C127.885 127.836 127.884 127.837 127.882 127.837C127.881 127.838 127.879 127.838 127.877 127.838C127.875 127.837 127.873 127.836 127.871 127.835ZM127.924 127.835L127.9 127.853L127.892 127.849L127.9 127.819L127.907 127.824L127.9 127.844L127.901 127.844L127.917 127.831L127.924 127.835ZM127.921 127.868C127.919 127.867 127.917 127.865 127.916 127.863C127.915 127.861 127.914 127.858 127.915 127.856C127.915 127.853 127.916 127.851 127.918 127.848C127.919 127.846 127.921 127.844 127.923 127.843C127.925 127.842 127.928 127.841 127.93 127.841C127.933 127.841 127.935 127.842 127.937 127.844C127.939 127.845 127.94 127.846 127.941 127.847C127.942 127.849 127.943 127.85 127.943 127.852C127.944 127.854 127.944 127.855 127.943 127.857C127.943 127.859 127.942 127.861 127.94 127.863L127.939 127.865L127.919 127.852L127.922 127.848L127.936 127.857C127.936 127.856 127.937 127.855 127.937 127.854C127.937 127.853 127.937 127.852 127.936 127.851C127.936 127.85 127.935 127.849 127.934 127.849C127.933 127.848 127.932 127.848 127.931 127.848C127.93 127.848 127.929 127.848 127.928 127.848C127.927 127.849 127.926 127.849 127.926 127.85L127.923 127.854C127.922 127.855 127.922 127.857 127.922 127.858C127.922 127.859 127.922 127.86 127.922 127.861C127.923 127.862 127.923 127.863 127.925 127.864C127.925 127.864 127.926 127.864 127.927 127.865C127.928 127.865 127.928 127.865 127.929 127.865C127.93 127.865 127.93 127.864 127.931 127.864L127.937 127.868C127.936 127.87 127.934 127.87 127.932 127.871C127.931 127.871 127.929 127.871 127.927 127.871C127.925 127.871 127.923 127.87 127.921 127.868ZM127.937 127.878L127.953 127.854L127.959 127.859L127.956 127.863L127.956 127.863C127.958 127.862 127.959 127.861 127.961 127.861C127.962 127.861 127.964 127.861 127.965 127.862C127.965 127.862 127.966 127.863 127.966 127.863C127.966 127.863 127.967 127.864 127.967 127.864L127.963 127.87C127.963 127.869 127.962 127.869 127.962 127.869C127.961 127.868 127.961 127.868 127.961 127.867C127.96 127.867 127.959 127.866 127.958 127.866C127.956 127.866 127.956 127.866 127.955 127.867C127.954 127.867 127.953 127.868 127.952 127.869L127.943 127.882L127.937 127.878ZM127.965 127.897L127.98 127.873L127.987 127.877L127.971 127.901L127.965 127.897ZM127.986 127.872C127.985 127.871 127.984 127.871 127.984 127.869C127.984 127.868 127.984 127.867 127.984 127.866C127.985 127.865 127.986 127.865 127.987 127.865C127.988 127.865 127.989 127.865 127.99 127.865C127.991 127.866 127.992 127.867 127.992 127.868C127.992 127.869 127.992 127.87 127.991 127.871C127.991 127.872 127.99 127.873 127.989 127.873C127.988 127.873 127.987 127.873 127.986 127.872ZM128.007 127.901L128.001 127.897C128.001 127.896 128.001 127.896 128.001 127.895C128.001 127.895 128.001 127.894 128.001 127.893C128 127.893 128 127.892 127.999 127.892C127.998 127.891 127.997 127.891 127.996 127.891C127.995 127.891 127.994 127.891 127.994 127.892C127.993 127.892 127.993 127.893 127.994 127.893C127.994 127.894 127.994 127.895 127.995 127.896L127.999 127.9C128.001 127.902 128.002 127.904 128.003 127.905C128.003 127.907 128.003 127.909 128.002 127.911C128.001 127.912 127.999 127.913 127.997 127.914C127.996 127.914 127.994 127.915 127.992 127.914C127.99 127.914 127.988 127.913 127.986 127.911C127.983 127.909 127.981 127.907 127.98 127.904C127.979 127.902 127.979 127.899 127.98 127.897L127.987 127.901C127.986 127.902 127.986 127.903 127.987 127.904C127.987 127.905 127.988 127.906 127.989 127.907C127.99 127.907 127.991 127.908 127.992 127.908C127.993 127.908 127.994 127.908 127.994 127.907C127.995 127.906 127.995 127.906 127.995 127.905C127.994 127.904 127.994 127.903 127.993 127.902L127.989 127.899C127.987 127.897 127.986 127.895 127.986 127.893C127.985 127.891 127.986 127.889 127.987 127.888C127.988 127.886 127.989 127.885 127.991 127.884C127.992 127.884 127.994 127.884 127.996 127.884C127.998 127.885 128 127.886 128.002 127.887C128.005 127.889 128.007 127.891 128.008 127.894C128.009 127.896 128.009 127.898 128.007 127.901ZM128.005 127.936L128.027 127.904L128.033 127.908L128.03 127.912L128.031 127.912C128.032 127.912 128.032 127.911 128.033 127.911C128.034 127.911 128.035 127.911 128.037 127.911C128.038 127.911 128.039 127.912 128.04 127.912C128.042 127.914 128.043 127.915 128.044 127.917C128.045 127.919 128.045 127.921 128.045 127.923C128.045 127.926 128.044 127.928 128.042 127.931C128.04 127.934 128.038 127.936 128.036 127.937C128.034 127.938 128.032 127.939 128.03 127.939C128.028 127.939 128.026 127.938 128.024 127.937C128.023 127.936 128.022 127.935 128.021 127.934C128.021 127.933 128.02 127.932 128.02 127.931C128.02 127.93 128.02 127.929 128.02 127.928L128.02 127.928L128.012 127.941L128.005 127.936ZM128.025 127.92C128.024 127.921 128.024 127.923 128.023 127.924C128.023 127.925 128.023 127.927 128.023 127.928C128.024 127.929 128.024 127.93 128.026 127.93C128.027 127.931 128.028 127.931 128.029 127.931C128.03 127.931 128.031 127.931 128.032 127.93C128.033 127.929 128.034 127.928 128.035 127.927C128.036 127.925 128.037 127.924 128.037 127.923C128.037 127.921 128.037 127.92 128.037 127.919C128.037 127.918 128.036 127.917 128.035 127.916C128.034 127.916 128.033 127.915 128.032 127.915C128.03 127.915 128.029 127.916 128.028 127.917C128.027 127.917 128.026 127.919 128.025 127.92ZM128.049 127.953C128.046 127.952 128.045 127.95 128.044 127.948C128.042 127.946 128.042 127.943 128.042 127.941C128.043 127.938 128.044 127.936 128.045 127.933C128.047 127.931 128.049 127.929 128.051 127.928C128.053 127.927 128.055 127.926 128.058 127.926C128.06 127.926 128.063 127.927 128.065 127.929C128.066 127.93 128.068 127.931 128.069 127.933C128.07 127.934 128.071 127.935 128.071 127.937C128.071 127.939 128.071 127.941 128.071 127.942C128.07 127.944 128.069 127.946 128.068 127.948L128.067 127.95L128.047 127.937L128.05 127.933L128.063 127.942C128.064 127.941 128.064 127.94 128.064 127.939C128.064 127.938 128.064 127.937 128.064 127.936C128.063 127.935 128.063 127.934 128.062 127.934C128.061 127.933 128.06 127.933 128.059 127.933C128.058 127.933 128.057 127.933 128.056 127.933C128.055 127.934 128.054 127.935 128.053 127.935L128.051 127.939C128.05 127.941 128.049 127.942 128.049 127.943C128.049 127.944 128.049 127.945 128.05 127.946C128.05 127.947 128.051 127.948 128.052 127.949C128.053 127.949 128.054 127.949 128.054 127.95C128.055 127.95 128.056 127.95 128.057 127.95C128.057 127.95 128.058 127.949 128.059 127.949L128.064 127.953C128.063 127.955 128.062 127.956 128.06 127.956C128.058 127.956 128.057 127.956 128.055 127.956C128.053 127.956 128.051 127.955 128.049 127.953ZM128.064 127.963L128.08 127.939L128.087 127.944L128.084 127.948L128.084 127.948C128.085 127.947 128.087 127.946 128.088 127.946C128.09 127.946 128.091 127.946 128.093 127.947C128.093 127.948 128.093 127.948 128.094 127.948C128.094 127.948 128.094 127.949 128.095 127.949L128.091 127.955C128.09 127.954 128.09 127.954 128.09 127.954C128.089 127.953 128.089 127.953 128.088 127.953C128.087 127.952 128.086 127.952 128.085 127.951C128.084 127.951 128.083 127.952 128.082 127.952C128.081 127.952 128.081 127.953 128.08 127.954L128.071 127.968L128.064 127.963ZM128.112 127.961L128.109 127.966L128.094 127.956L128.097 127.951L128.112 127.961ZM128.085 127.977L128.102 127.951C128.103 127.95 128.104 127.948 128.106 127.948C128.107 127.947 128.109 127.947 128.11 127.947C128.112 127.947 128.113 127.948 128.115 127.949C128.116 127.95 128.117 127.95 128.117 127.951C128.118 127.952 128.119 127.952 128.119 127.953L128.114 127.957C128.114 127.957 128.114 127.956 128.114 127.956C128.113 127.956 128.113 127.955 128.113 127.955C128.112 127.954 128.111 127.954 128.11 127.954C128.109 127.955 128.109 127.955 128.108 127.956L128.091 127.981L128.085 127.977ZM128.11 127.994C128.107 127.992 128.106 127.991 128.104 127.988C128.103 127.986 128.103 127.984 128.103 127.981C128.103 127.979 128.104 127.977 128.106 127.974C128.108 127.972 128.11 127.97 128.112 127.969C128.114 127.967 128.116 127.967 128.119 127.967C128.121 127.967 128.123 127.968 128.126 127.969C128.127 127.97 128.129 127.972 128.13 127.973C128.131 127.974 128.131 127.976 128.132 127.978C128.132 127.979 128.132 127.981 128.132 127.983C128.131 127.985 128.13 127.987 128.129 127.989L128.128 127.991L128.108 127.977L128.11 127.973L128.124 127.982C128.125 127.982 128.125 127.981 128.125 127.98C128.125 127.979 128.125 127.978 128.125 127.977C128.124 127.976 128.124 127.975 128.123 127.974C128.122 127.974 128.121 127.973 128.12 127.973C128.118 127.973 128.117 127.973 128.116 127.974C128.116 127.974 128.115 127.975 128.114 127.976L128.112 127.98C128.111 127.981 128.11 127.982 128.11 127.983C128.11 127.985 128.11 127.986 128.111 127.987C128.111 127.988 128.112 127.989 128.113 127.989C128.114 127.99 128.115 127.99 128.115 127.99C128.116 127.99 128.117 127.991 128.118 127.99C128.118 127.99 128.119 127.99 128.12 127.99L128.125 127.994C128.124 127.995 128.123 127.996 128.121 127.997C128.119 127.997 128.117 127.997 128.116 127.997C128.114 127.996 128.112 127.995 128.11 127.994ZM128.136 128.011C128.133 128.01 128.131 128.008 128.13 128.006C128.129 128.003 128.129 128.001 128.129 127.999C128.13 127.996 128.131 127.994 128.132 127.991C128.134 127.989 128.136 127.987 128.138 127.986C128.14 127.985 128.142 127.984 128.145 127.984C128.147 127.984 128.15 127.985 128.152 127.987C128.154 127.988 128.156 127.99 128.157 127.992C128.158 127.993 128.158 127.995 128.158 127.997C128.158 127.999 128.158 128.001 128.156 128.003L128.15 127.999C128.151 127.998 128.151 127.996 128.151 127.995C128.151 127.994 128.15 127.993 128.149 127.992C128.148 127.991 128.147 127.991 128.145 127.991C128.144 127.991 128.143 127.992 128.142 127.992C128.141 127.993 128.14 127.994 128.139 127.996C128.138 127.997 128.137 127.999 128.137 128C128.137 128.001 128.137 128.003 128.137 128.004C128.137 128.005 128.138 128.006 128.139 128.006C128.14 128.007 128.141 128.007 128.142 128.007C128.142 128.007 128.143 128.007 128.144 128.007C128.145 128.006 128.145 128.006 128.146 128.005L128.152 128.009C128.151 128.011 128.149 128.012 128.148 128.013C128.146 128.014 128.144 128.014 128.142 128.014C128.14 128.014 128.138 128.013 128.136 128.011ZM128.179 128.005L128.176 128.01L128.162 128.001L128.165 127.996L128.179 128.005ZM128.172 127.992L128.178 127.997L128.164 128.019C128.163 128.019 128.163 128.02 128.163 128.02C128.163 128.021 128.163 128.021 128.163 128.022C128.164 128.022 128.164 128.022 128.164 128.023C128.165 128.023 128.165 128.023 128.165 128.023C128.166 128.023 128.166 128.023 128.166 128.024L128.164 128.029C128.164 128.029 128.163 128.029 128.162 128.029C128.162 128.028 128.161 128.028 128.16 128.027C128.158 128.026 128.157 128.025 128.156 128.024C128.155 128.023 128.155 128.021 128.155 128.02C128.155 128.018 128.156 128.017 128.157 128.015L128.172 127.992Z" fill="white"/>
<path fill-rule="evenodd" clip-rule="evenodd" d="M276.205 82.8387C297.032 82.8387 313.915 65.9554 313.915 45.1288C313.915 24.3022 297.032 7.41895 276.205 7.41895C255.378 7.41895 238.495 24.3022 238.495 45.1288C238.495 65.9554 255.378 82.8387 276.205 82.8387ZM276.211 68.3986C289.061 68.3986 299.478 57.9813 299.478 45.1308C299.478 32.2804 289.061 21.863 276.211 21.863C263.36 21.863 252.943 32.2804 252.943 45.1308C252.943 57.9813 263.36 68.3986 276.211 68.3986Z" fill="white"/>
</svg>
